<svg height="95.814" viewBox="0 0 200 95.814" width="200" xmlns="http://www.w3.org/2000/svg" xmlns:xlink="http://www.w3.org/1999/xlink"><linearGradient id="a" gradientTransform="matrix(.70711912 .70709444 -.70709444 .70711912 62.932 -75.663)" gradientUnits="userSpaceOnUse" x1="111.726" x2="133.875" y1="38.135" y2="38.135"><stop offset="0" stop-color="#fff" stop-opacity=".2"/><stop offset="1" stop-color="#fff"/></linearGradient><linearGradient id="b" gradientTransform="matrix(.70711912 .70709444 -.70709444 .70711912 49.903 -70.266)" x1="98.697" x2="120.847" xlink:href="#a" y1="25.106" y2="25.106"/><linearGradient id="c" gradientTransform="matrix(.70709444 .70711912 -.70711912 .70709444 56.419 -72.966)" x1="105.211" x2="127.361" xlink:href="#a" y1="31.62" y2="31.62"/><linearGradient id="d" gradientTransform="matrix(.70711912 .70709444 -.70709444 .70711912 63.395 -37.694)" gradientUnits="userSpaceOnUse" x1="66.124" x2="88.274" y1="57.678" y2="57.678"><stop offset="0" stop-color="#fff"/><stop offset="1" stop-color="#fff" stop-opacity=".2"/></linearGradient><linearGradient id="e" gradientTransform="matrix(.70709444 .70711912 -.70711912 .70709444 76.426 -43.091)" x1="79.153" x2="101.303" xlink:href="#d" y1="70.707" y2="70.707"/><linearGradient id="f" gradientTransform="matrix(.70709444 .70711912 -.70711912 .70709444 69.912 -40.393)" x1="72.639" x2="94.788" xlink:href="#d" y1="64.193" y2="64.193"/><g fill="#fff"><path d="m47.884 92.129a44.222 44.222 0 0 1 -31.269-75.492 44.222 44.222 0 0 1 62.539 0l32.572 32.573 19.544 19.543a29.481 29.481 0 1 0 0-41.692l2.6 2.605a25.8 25.8 0 1 1 0 36.481l-19.538-19.547-32.573-32.568a47.906 47.906 0 0 0 -67.75 67.75 47.905 47.905 0 0 0 67.75 0l-2.605-2.6a43.94 43.94 0 0 1 -31.27 12.947z"/><path d="m185.991 14.032a47.905 47.905 0 0 0 -67.75 0l2.606 2.605a44.222 44.222 0 0 1 62.538 62.54 44.221 44.221 0 0 1 -62.538 0l-32.573-32.577-19.543-19.539a29.481 29.481 0 1 0 0 41.692l-2.606-2.606a25.8 25.8 0 1 1 0-36.481l19.543 19.544 32.573 32.572a47.906 47.906 0 1 0 67.75-67.75z"/><path d="m176.871 23.151a35.009 35.009 0 1 1 -49.51 49.51l-1.367-1.368-2.607 2.607 1.368 1.368a38.694 38.694 0 1 0 0-54.722l2.606 2.606a35.048 35.048 0 0 1 49.51-.001z"/><path d="m101.048 48.93h3.685v3.732h-3.685z" transform="matrix(.70716849 -.70704507 .70704507 .70716849 -5.786 87.623)"/><path d="m106.827 54.71h3.685v3.732h-3.685z" transform="matrix(.70716849 -.70704507 .70704507 .70716849 -8.18 93.402)"/><path d="m112.607 60.491h3.685v3.732h-3.685z" transform="matrix(.70716849 -.70704507 .70704507 .70716849 -10.574 99.181)"/><path d="m118.387 66.27h3.685v3.732h-3.685z" transform="matrix(.70716849 -.70704507 .70704507 .70716849 -12.968 104.96)"/><path d="m95.255 43.134h3.686v3.74h-3.686z" transform="matrix(.70679818 -.70741525 .70741525 .70679818 -3.368 81.883)"/><path d="m85.499 30.799-2.606 2.606 2.64 2.639.87-.866 1.735-1.739z"/><path d="m77.884 25.763h3.685v3.739h-3.685z" transform="matrix(.70716849 -.70704507 .70704507 .70716849 3.809 64.462)"/><path d="m86.838 34.744-.435.434-.867.869z"/><path d="m89.464 37.343h3.685v3.738h-3.685z" transform="matrix(.70710678 -.70710678 .70710678 .70710678 -.984 76.048)"/><path d="m74.005 24.518 2.606-2.606-1.366-1.367-1.3 1.3 1.3-1.3a38.694 38.694 0 0 0 -54.722 54.722 38.7 38.7 0 0 0 54.722 0l-2.606-2.606a35.009 35.009 0 1 1 0-49.51z"/></g><path d="m108.981 36.293h27.638v3.685h-27.638z" fill="url(#a)" transform="matrix(.70711912 -.70709444 .70709444 .70711912 9.001 98.001)"/><path d="m95.953 23.263h27.638v3.685h-27.638z" fill="url(#b)" transform="matrix(.70711912 -.70709444 .70709444 .70711912 14.398 84.973)"/><path d="m102.466 29.778h27.639v3.685h-27.639z" fill="url(#c)" transform="matrix(.70709444 -.70711912 .70711912 .70709444 11.701 91.489)"/><path d="m63.38 55.836h27.638v3.685h-27.638z" fill="url(#d)" transform="matrix(.70711912 -.70709444 .70709444 .70711912 -18.174 71.481)"/><path d="m76.408 68.865h27.639v3.685h-27.639z" fill="url(#e)" transform="matrix(.70709444 -.70711912 .70711912 .70709444 -23.57 84.512)"/><path d="m69.894 62.35h27.639v3.685h-27.639z" fill="url(#f)" transform="matrix(.70709444 -.70711912 .70711912 .70709444 -20.872 77.998)"/></svg>