<svg width="150" height="146" viewBox="0 0 150 146" fill="none" xmlns="http://www.w3.org/2000/svg">
<path d="M74.7422 103.09L150 21.8705L74.7422 145.68L74.7422 103.09Z" fill="#FFFD9D"/>
<path d="M74.7788 103.09L-9.18844e-05 21.8705L74.7788 145.68L74.7788 103.09Z" fill="#B6761C"/>
<path d="M150 21.8706L-5.53653e-05 21.8706L74.7425 103.09L150 21.8706Z" fill="#FFE144"/>
<path d="M105.952 37.3469L44.0472 37.3468L74.8933 70.6801L105.952 37.3469Z" fill="#B6761C"/>
<path d="M74.894 34.0946L105.884 0.650163L74.894 51.6323L74.894 34.0946Z" fill="#FFFD9D"/>
<path d="M74.9087 34.0946L44.1163 0.650193L74.9087 51.6323L74.9087 34.0946Z" fill="#B6761C"/>
<path d="M105.884 0.650329L44.1167 0.650324L74.8941 34.0947L105.884 0.650329Z" fill="#FFE144"/>
</svg>
